<?xml version="1.0" encoding="UTF-8" standalone="no"?>
<svg
   xmlns:dc="http://purl.org/dc/elements/1.1/"
   xmlns:cc="http://creativecommons.org/ns#"
   xmlns:rdf="http://www.w3.org/1999/02/22-rdf-syntax-ns#"
   xmlns:svg="http://www.w3.org/2000/svg"
   xmlns="http://www.w3.org/2000/svg"
   viewBox="0 0 2528.3201 660.01331"
   height="660.01331"
   width="2528.3201"
   xml:space="preserve"
   id="svg2"
   version="1.1"><metadata
     id="metadata8"><rdf:RDF><cc:Work
         rdf:about=""><dc:format>image/svg+xml</dc:format><dc:type
           rdf:resource="http://purl.org/dc/dcmitype/StillImage" /></cc:Work></rdf:RDF></metadata><defs
     id="defs6" /><g
     transform="matrix(1.3333333,0,0,-1.3333333,0,660.01333)"
     id="g10"><g
       transform="scale(0.1)"
       id="g12"><g
         transform="scale(1.16331)"
         id="g14"><path
           id="path16"
           style="fill:#f1ef24;fill-opacity:1;fill-rule:nonzero;stroke:none"
           d="m 181.956,2698.32 c 544.22,242.74 1116.934,420.21 1693.024,569.65 618.92,160.54 1246.71,286.24 1877.44,390.37 1064.26,175.69 2141.72,296.94 3219.54,346.3 556.43,25.49 1114.27,13.92 1671.03,6.16 722.07,-10.04 1444.11,-30.23 2165.31,-66.52 997.1,-50.16 1996.9,-124.59 2983.3,-283.24 540.5,-86.93 1087.3,-194.04 1599.9,-391.21 -38.8,14.89 25.8,-10.46 37.7,-15.35 21,-8.61 41.8,-17.43 62.5,-26.49 35.6,-15.58 70.9,-31.85 105.8,-48.99 59.9,-29.43 118.8,-61.32 175.3,-96.92 24.1,-15.12 47.3,-31.25 70.5,-47.44 -40,27.82 -2.7,1.75 7.8,-6.42 10,-7.78 19.9,-15.72 29.5,-23.88 31.5,-26.6 58.8,-56.14 87.2,-85.77 21.6,-22.45 -18.3,27.68 -1.8,2.34 4.3,-6.83 9.8,-13.14 14.4,-19.88 8.4,-12.32 15.6,-25.15 23.2,-37.97 3.3,-5.5 5.2,-11.85 8.7,-17.2 14.9,-23.64 -10.1,34.57 -3.9,9.07 2.7,-11.05 7.6,-22.15 10.9,-33.07 15.6,-49.75 25.5,-99.72 35.3,-150.76 5.7,-29.95 -1.8,35.22 -1.1,8.66 0.2,-7.67 1.7,-15.34 2,-23.02 0.7,-15.15 1.6,-30.22 1.5,-45.4 -0.1,-15.74 -0.8,-31.49 -2.2,-47.18 -0.6,-7.69 -1.9,-15.38 -2.5,-23.07 -2,-31.12 8.3,33.92 0.4,2.01 -8.3,-33.89 -15.4,-67.16 -27.8,-100 -3.2,-8.45 -7.2,-16.69 -10.1,-25.2 -7.1,-20.07 15.6,30.98 5.6,12.55 -2.7,-4.97 -4.7,-10.35 -7.3,-15.36 -9.8,-18.42 -19.3,-36.8 -30.2,-54.59 -11.7,-19.16 -24.6,-37.44 -37.6,-55.73 -7.8,-11.03 -36.3,-43.16 -3.6,-5.52 -8.5,-9.82 -16.6,-20.08 -25.2,-29.87 -35.6,-40.63 -74.7,-78.23 -115.7,-113.44 -23.9,-20.55 -48.7,-39.89 -73.6,-59.19 38.4,29.73 -6.2,-4.23 -17.5,-12.28 -15.1,-10.7 -30.3,-21.15 -45.8,-31.4 -65.8,-43.82 -134.2,-83.77 -203.9,-120.98 -80.8,-43.08 -163.5,-82.44 -247.3,-119.14 -22.6,-9.9 -45.4,-19.49 -68.1,-29.12 -7,-2.97 -14,-5.82 -21.1,-8.74 31.4,13.04 16.1,6.55 9.1,3.75 -14.4,-5.84 -28.9,-11.72 -43.5,-17.47 -53.5,-21.22 -107.5,-41.53 -161.6,-61.1 -259.6,-93.67 -525.1,-170.64 -792.4,-238.82 -803.9,-205.02 -1626.7,-336.42 -2448.7,-443.59 C 10393.2,849.272 9091.88,744.651 7790.53,665.015 6266.32,571.737 4725.05,471.928 3204.41,666.681 c -518.55,66.425 -1037.76,164.455 -1533.3,334.009 -323.5,110.7 -666.33,266.98 -910.305,479.91 -51.56,44.99 -99.658,93.44 -144.22,145.38 -22.259,25.93 5.04,-8.08 -15.141,18.9 -8.888,11.89 -17.766,23.75 -26.265,35.92 -18.059,25.87 -34.922,52.58 -50.294,80.13 -13.438,24.09 -25.624,48.82 -36.759,74.05 14.406,-32.64 -2.813,8.2 -5.674,16.06 -5.427,14.95 -10.406,30.06 -14.872,45.31 -7.371,25.16 -12.78,50.6 -17.941,76.28 -1.773,8.83 -6.542,52.07 -2.838,15 -1.544,15.47 -2.878,30.92 -3.549,46.47 -1.122,25.9 -0.054,51.5 0.96,77.37 0.188,4.79 1.004,9.6 1.437,14.36 2.324,25.66 -6.245,-26.7 -0.013,-1.62 3.254,13.08 6.286,26.1 10.51,38.94 1.951,5.95 16.423,41.27 8.909,24.64 -7.478,-16.54 10.11,18.68 13.3,24.26 6.729,11.75 14.002,23.17 21.655,34.35 5.584,8.16 33.894,43.35 14.264,20.08 102.889,121.97 199.279,180.68 343.557,258.32 409.139,220.17 879.239,341.67 1335.319,446.58 666.65,153.34 1345.3,253.93 2024.6,331.14 1301.78,147.96 2613.36,212.47 3923.33,205.58 1244.27,-6.54 2492.42,-62.21 3728.42,-210.74 588.9,-70.78 1177.2,-163.73 1753.8,-304.26 248.9,-60.63 495.8,-130.52 737.2,-216.38 132.3,-47.08 254.7,-98.95 371.4,-177.54 4.9,-3.31 9.8,-6.77 14.6,-10.17 25,-17.5 -20.1,15.24 4.5,-3.26 12.2,-9.19 24.4,-18.45 36.3,-27.95 27.1,-21.47 53.4,-43.87 79,-67.14 49.5,-45.08 95.5,-93.48 138.8,-144.57 3.8,-4.67 17.9,-22.28 2.8,-3.26 5.3,-6.52 10.4,-13.06 15.4,-19.72 10.1,-13.39 20.1,-26.75 29.8,-40.41 20.5,-28.83 39.7,-58.47 57.8,-88.89 17.2,-29.14 33.3,-58.99 47.9,-89.49 3.2,-6.82 23.1,-51.91 12.7,-26.91 7.8,-18.87 15.1,-37.99 21.8,-57.3 11.3,-32.35 21,-65.26 28.8,-98.6 4.1,-16.79 7.6,-33.69 10.6,-50.67 1.9,-10.25 3.5,-20.52 5.1,-30.82 3.8,-25.83 -1.6,18.17 1.2,-10.39 3.4,-35.25 5,-70.64 4.4,-106.07 -0.4,-18.05 -1.3,-36.11 -2.7,-54.11 -0.8,-9.95 -7.2,-63.07 -4.6,-46.7 -27.8,-176.62 -99.8,-316.72 -208.3,-460.29 -136.2,-179.988 -321.9,-330.998 -510.5,-456.751 -289.1,-192.855 -605.7,-344.396 -927.7,-473.563 -59.8,-23.955 -106,-75.884 -88.3,-144.7139 14.8,-57.9635 89.7,-104.8561 148.9,-81.14953 576.1,231.03143 1191.7,524.78743 1579.1,1029.62743 218.7,284.96 319.6,648.15 216.9,998.94 -82.6,282.47 -274.1,531.54 -506.3,708.81 -307.3,234.58 -702.3,333.73 -1070,431.1 -1208.6,319.99 -2475.2,434.34 -3719.7,506.18 -1124.17,64.88 -2253.84,84.08 -3379.27,42.49 -832.9,-30.77 -1665.38,-87.54 -2493.78,-180.05 C 3578.92,3465.4 2880.95,3365.32 2195.03,3211.42 1710.79,3102.78 1214.42,2973.16 771.191,2744.04 519.892,2614.14 220.723,2413.81 198.863,2103.02 153.488,1457.78 867.753,1059.13 1374.47,858.435 1847.92,670.902 2347.76,558.01 2849.99,480.111 3530.73,374.516 4220.52,331.133 4908.91,322.778 c 845.2,-10.248 1690.16,38.76 2533.64,87.181 747.99,42.937 1495.54,94.644 2241.95,159.743 1105.4,96.422 2211,218.107 3304.2,410.973 660.8,116.575 1324.6,255.355 1958.5,479.205 353.7,124.87 713.9,275.04 1005.6,516.27 153.3,126.74 291.3,295.63 332.8,494.76 28.4,136.37 13.6,272.31 -26,404.82 -52,173.53 -183.3,292.49 -330.2,390.52 -313.3,209.11 -695.8,321.65 -1056.6,415.34 -740.1,192.2 -1505,289.82 -2264.5,366.18 -1296.3,130.34 -2600.8,177.75 -3902.99,196.91 -575.87,8.47 -1153.05,21.03 -1728.63,-5.33 -490.91,-22.49 -981.09,-62.68 -1469.86,-113.16 C 4235.63,3994.88 2962.87,3799 1726.58,3470.78 1158.79,3320.03 597.536,3138.74 60.5256,2899.22 1.59834,2872.94 -15.7618,2790.53 14.8955,2738.1 50.5963,2677.05 123.838,2672.4 181.956,2698.32 v 0" /></g></g></g></svg>