<?xml version="1.0" encoding="UTF-8" standalone="no"?>
<svg
   xmlns:dc="http://purl.org/dc/elements/1.1/"
   xmlns:cc="http://creativecommons.org/ns#"
   xmlns:rdf="http://www.w3.org/1999/02/22-rdf-syntax-ns#"
   xmlns:svg="http://www.w3.org/2000/svg"
   xmlns="http://www.w3.org/2000/svg"
   viewBox="0 0 2256.4268 140.84"
   height="140.84"
   width="2256.4268"
   xml:space="preserve"
   id="svg2"
   version="1.1"><metadata
     id="metadata8"><rdf:RDF><cc:Work
         rdf:about=""><dc:format>image/svg+xml</dc:format><dc:type
           rdf:resource="http://purl.org/dc/dcmitype/StillImage" /></cc:Work></rdf:RDF></metadata><defs
     id="defs6" /><g
     transform="matrix(1.3333333,0,0,-1.3333333,0,140.84)"
     id="g10"><g
       transform="scale(0.1)"
       id="g12"><g
         transform="scale(1.03822)"
         id="g14"><path
           id="path16"
           style="fill:#f1ef24;fill-opacity:1;fill-rule:nonzero;stroke:none"
           d="m 1430.32,728.511 c 1705.3,6.678 3410.62,5.663 5115.92,-3.187 1694.63,-8.804 3389.22,-25.302 5083.66,-49.495 959.1,-13.687 1918.3,-29.873 2877.3,-48.471 0,94.851 0,189.714 0,284.565 C 12653.3,905.941 10799.6,857.386 8946.91,793.857 7033.92,728.267 5121.59,645.147 3209.3,562.192 2185.36,517.777 1161.43,473.335 137.352,432.331 c -182.2154,-7.299 -184.0515,-285.257 0,-284.553 1018.908,3.856 2037.818,4.921 3056.728,3.491 1050.52,-1.467 2101.03,-5.561 3151.53,-12.134 1068.55,-6.697 2137.08,-15.964 3205.58,-27.891 C 10609.4,99.4226 11667.7,85.0012 12725.8,67.63 13745.5,50.8758 14765.4,31.4202 15785,8.59343 15910.1,5.7904 16035.2,2.93847 16160.3,0.0376245 16316.4,-3.57432 16359.7,255.478 16198.1,279.512 c -1300.7,193.473 -2606,363.358 -3917.4,465.847 -1026.9,80.261 -2056.1,113.276 -3086.02,114.556 -610.88,0.763 -1221.73,-7.57 -1832.53,-16.969 -182.94,-2.811 -183.49,-287.376 0,-284.554 1048.17,16.115 2096.81,29.178 3144.85,-1.994 1092.8,-32.507 2183,-116.982 3269.3,-239.781 784,-88.624 1565.8,-195.421 2346.2,-311.50384 12.6,93.16194 25.2,186.31984 37.8,279.47784 -1018.6,23.61 -2037.3,43.833 -3056.1,61.253 -1050.3,17.954 -2100.8,32.948 -3151.21,45.338 -1068.47,12.611 -2137.01,22.525 -3205.54,29.862 -1058.29,7.273 -2116.59,12.021 -3174.89,14.139 -1019.92,2.04 -2039.85,1.645 -3059.78,-1.554 -125.143,-0.383 -250.285,-0.827 -375.428,-1.298 0,-94.851 0,-189.702 0,-284.553 1852.778,74.176 3705.128,159.068 5557.788,236.33 1912.26,79.745 3824.92,152.699 5738.36,198.638 1024.3,24.607 2049,41.312 3073.7,44.612 183.3,0.594 183.2,281.009 0,284.565 -1704.9,33.053 -3410,58.412 -5115.31,75.945 -1694.56,17.412 -3389.21,27.132 -5083.86,29.162 -959.23,1.14 -1918.47,-0.2 -2877.71,-3.95 -183.06,-0.73 -183.43,-285.284 0,-284.569 v 0" /></g></g></g></svg>