<?xml version="1.0" encoding="UTF-8" standalone="no"?>
<svg
   xmlns:dc="http://purl.org/dc/elements/1.1/"
   xmlns:cc="http://creativecommons.org/ns#"
   xmlns:rdf="http://www.w3.org/1999/02/22-rdf-syntax-ns#"
   xmlns:svg="http://www.w3.org/2000/svg"
   xmlns="http://www.w3.org/2000/svg"
   viewBox="0 0 1611.5867 78.90667"
   height="78.90667"
   width="1611.5867"
   xml:space="preserve"
   id="svg2"
   version="1.1"><metadata
     id="metadata8"><rdf:RDF><cc:Work
         rdf:about=""><dc:format>image/svg+xml</dc:format><dc:type
           rdf:resource="http://purl.org/dc/dcmitype/StillImage" /></cc:Work></rdf:RDF></metadata><defs
     id="defs6" /><g
     transform="matrix(1.3333333,0,0,-1.3333333,0,78.906667)"
     id="g10"><g
       transform="scale(0.1)"
       id="g12"><path
         id="path14"
         style="fill:#f1ef24;fill-opacity:1;fill-rule:nonzero;stroke:none"
         d="m 908.254,317.887 c 604.256,34.363 1209.386,52.258 1814.486,62.968 710.07,12.563 1420.33,14.551 2130.49,10.438 771.19,-4.469 1542.34,-16.355 2313.35,-33.609 787.83,-17.621 1575.54,-40.903 2363.06,-69.172 763.26,-27.399 1526.36,-59.481 2289.16,-96.727 88.8,-4.34 177.6,-8.75 266.4,-13.226 0,66.175 0,132.355 0,198.527 -263.5,8.832 -527.1,15.629 -790.7,22.18 -683.8,17.007 -1367.68,29.621 -2051.61,38.437 C 8299.12,449.871 7355.24,454.691 6411.4,450.234 5367.77,445.301 4324.09,429.336 3281,394.695 2297.25,362.027 1313.34,314.359 332.637,228.926 222.578,219.34 112.57,209.211 2.60938,198.531 -5.19922,197.77 7.47656,0.472656 2.60938,0 964.137,93.3945 1929.53,145.703 2894.72,182.418 c 1044.17,39.719 2089.08,59.086 3133.95,66.945 964.93,7.262 1929.94,4.328 2894.83,-6.359 724.98,-8.027 1449.9,-20.41 2174.7,-37.512 223.3,-5.269 446.5,-10.98 669.8,-17.332 66.7,-1.906 133.5,-3.859 200.2,-5.902 29.7,-0.91 74.8,-11.121 103.7,-3.258 3.7,1.004 9.4,-0.309 13.3,-0.441 -1.2,0.039 4.4,198.312 0,198.527 -752.9,37.957 -1506.1,70.82 -2259.51,99.086 -786.45,29.508 -1573.08,54.039 -2359.84,73.07 -775.56,18.77 -1551.25,32.246 -2327.01,38.586 -720.32,5.883 -1440.73,5.774 -2161.01,-4.394 -623.26,-8.801 -1246.59,-24.582 -1869.15,-56.219 -66.82,-3.399 -133.629,-7.004 -200.426,-10.805 -5.207,-0.293 2.238,-198.398 0,-198.523 v 0" /></g></g></svg>