<?xml version="1.0" encoding="UTF-8" standalone="no"?>
<svg
   xmlns:dc="http://purl.org/dc/elements/1.1/"
   xmlns:cc="http://creativecommons.org/ns#"
   xmlns:rdf="http://www.w3.org/1999/02/22-rdf-syntax-ns#"
   xmlns:svg="http://www.w3.org/2000/svg"
   xmlns="http://www.w3.org/2000/svg"
   viewBox="0 0 822.89331 602.1333"
   height="602.1333"
   width="822.89331"
   xml:space="preserve"
   id="svg2"
   version="1.1"><metadata
     id="metadata8"><rdf:RDF><cc:Work
         rdf:about=""><dc:format>image/svg+xml</dc:format><dc:type
           rdf:resource="http://purl.org/dc/dcmitype/StillImage" /></cc:Work></rdf:RDF></metadata><defs
     id="defs6" /><g
     transform="matrix(1.3333333,0,0,-1.3333333,0,602.13333)"
     id="g10"><g
       transform="scale(0.1)"
       id="g12"><path
         id="path14"
         style="fill:#f1ef24;fill-opacity:1;fill-rule:nonzero;stroke:none"
         d="M 2901.93,503.852 C 1827.8,1382.27 213.492,1618.62 130.211,3326.96 40.0938,5114.33 3349.51,4330.55 3205.18,2820.47 2973.82,5008.99 7175.65,4925.39 5743.54,2486.93 5012.2,1515.66 3884.74,910.051 2969.65,123.09" /><path
         id="path16"
         style="fill:#f1ef24;fill-opacity:1;fill-rule:nonzero;stroke:none"
         d="m 2994.62,593.102 c -540.36,439.928 -1188.21,709.588 -1759.5,1102.478 -251.667,173.09 -502.167,394.5 -670.78,651.27 -193.641,294.89 -290.32,636.83 -304.703,993.21 -2.629,65.13 -1.086,130.45 6.199,195.26 1.602,14.25 3.445,28.47 5.644,42.64 -4.16,-26.77 3.711,17.75 5.184,24.75 5.883,27.94 12.949,55.63 21.32,82.93 8.075,26.32 18.067,51.72 27.762,77.45 10.93,29.01 -8.016,-13.64 5.949,13.67 6.336,12.4 12.352,24.93 19.024,37.17 12.363,22.68 25.828,44.75 40.332,66.13 6.746,9.94 13.887,19.57 20.887,29.32 3.488,4.85 7.277,9.48 10.89,14.23 9.559,12.54 -16.574,-18.92 -0.762,-1.23 33.692,37.72 68.614,73.42 107.95,105.35 9.578,7.79 32.039,23.98 8.425,7.11 10.938,7.82 21.875,15.57 33.079,23.01 21.316,14.14 43.242,27.38 65.632,39.75 22.727,12.54 45.95,24.16 69.551,34.94 4.121,1.88 41.399,17.94 22.129,9.95 -16.883,-7 20.606,7.82 27.473,10.32 51.121,18.6 103.515,33.64 156.57,45.6 27.316,6.16 54.816,11.48 82.434,16.07 4.731,0.78 45.621,6.84 27.301,4.34 -15.28,-2.08 24.95,2.89 32.96,3.73 58.41,6.13 117.14,9.17 175.87,9.59 60.58,0.43 121.17,-2 181.56,-6.91 14.45,-1.17 28.86,-2.59 43.28,-3.95 7.25,-0.69 14.48,-1.53 21.7,-2.31 -26.64,2.89 -1.92,0.28 4.75,-0.61 30.99,-4.14 61.9,-8.57 92.72,-13.77 125.38,-21.16 249.09,-52.26 369.78,-92.21 30.43,-10.08 60.56,-20.92 90.65,-31.93 27.63,-10.12 -5.01,2.48 22.24,-8.59 15.7,-6.37 31.41,-12.71 47.02,-19.31 58.71,-24.82 116.48,-51.89 173.07,-81.22 55.94,-29 110.72,-60.24 164.06,-93.77 26.33,-16.56 52.31,-33.69 77.89,-51.39 5.98,-4.14 11.93,-8.32 17.88,-12.51 15.73,-11.1 -15.13,11.14 0.32,-0.25 13.08,-9.64 26.1,-19.35 38.96,-29.27 94.76,-73.06 181.38,-155.04 259.49,-245.66 22.08,-25.61 -0.24,1.34 11.96,-14.55 9.27,-12.07 18.61,-24.08 27.61,-36.36 16.86,-22.97 32.99,-46.46 48.3,-70.49 30.25,-47.44 56.52,-96.87 80.3,-147.81 9.92,-21.26 0.41,-0.39 -1.21,3.45 2.53,-6.02 5.06,-12.06 7.44,-18.14 5.34,-13.69 10.59,-27.39 15.46,-41.25 9.2,-26.15 17.38,-52.66 24.44,-79.47 7.07,-26.89 13.03,-54.07 17.83,-81.45 2.29,-12.96 4.18,-25.96 6.05,-38.99 2.61,-18.3 -2.13,21.82 -0.47,3.36 0.75,-8.26 1.62,-16.5 2.26,-24.77 4.5,-57.46 3.6,-115.06 -1.59,-172.44 86.66,0.6 173.32,1.2 259.98,1.8 -13.15,128.49 -12.39,257.7 6.41,385.59 2.69,18.4 -3.53,-19.91 -0.21,-1.73 1.51,8.27 2.94,16.55 4.53,24.8 2.53,13.09 5.26,26.13 8.19,39.13 6.47,28.75 13.91,57.29 22.36,85.53 8.26,27.66 17.48,55.04 27.65,82.06 4.45,11.85 9.1,23.64 13.91,35.35 2.41,5.83 4.91,11.61 7.33,17.42 12.35,29.59 -11.56,-23.91 2.13,4.95 23.19,48.91 48.93,96.44 78.05,142.09 13.96,21.88 28.6,43.31 43.88,64.28 7.17,9.83 14.58,19.47 21.91,29.18 21.07,27.89 -8.39,-8.57 13.82,17.01 35.78,41.21 72.79,80.96 112.82,118.11 17.75,16.48 35.93,32.49 54.5,48.02 10.46,8.75 21.04,17.35 31.74,25.8 5.95,4.7 11.99,9.29 17.95,13.96 19.19,15.03 -14.58,-10.45 -1.36,-0.99 88.32,63.25 181.46,118.33 280.23,163.73 11.16,5.13 22.38,10.14 33.64,15.03 11.92,5.18 38.31,15.83 10.19,4.6 27.18,10.85 54.51,21.24 82.15,30.88 50.95,17.79 102.7,33.34 155,46.69 53.75,13.71 108.09,25.1 162.82,34.17 12.14,2.01 24.3,3.82 36.45,5.69 23.49,3.61 -3.89,-0.49 -7.25,-0.92 6.08,0.79 12.17,1.62 18.26,2.33 28.89,3.37 57.78,6.42 86.79,8.66 106.72,8.26 214.18,7.76 320.75,-2.3 11.81,-1.11 23.58,-2.37 35.36,-3.69 -35.39,3.97 1.66,-0.41 10.54,-1.66 27.5,-3.87 54.89,-8.41 82.17,-13.63 49.35,-9.46 98.28,-21.2 146.49,-35.4 23,-6.77 45.82,-14.1 68.45,-22.01 11.86,-4.16 23.64,-8.53 35.42,-12.93 -30.65,11.46 5.16,-2.32 15.79,-6.83 43.88,-18.62 86.75,-39.65 128.16,-63.27 19.75,-11.26 39.17,-23.1 58.2,-35.55 8.88,-5.81 17.59,-11.87 26.38,-17.82 17.67,-11.97 -4.73,3.42 -6.81,4.98 6.31,-4.73 12.74,-9.35 18.96,-14.22 37.03,-28.99 72.43,-59.76 105.15,-93.6 14.43,-14.93 28.02,-30.51 41.65,-46.16 13.88,-15.94 -4.06,5.07 -5.57,7.01 3.97,-5.12 8.08,-10.13 11.93,-15.33 6.95,-9.38 13.94,-18.7 20.62,-28.27 27.03,-38.72 50.17,-79.59 70.82,-122.01 6.36,-13.05 13.51,-31.62 3.2,-5.96 4.51,-11.21 9.04,-22.38 13.21,-33.72 8.94,-24.33 16.78,-49.06 23.52,-74.08 5.82,-21.63 10.82,-43.47 15.03,-65.47 2.42,-12.65 4.42,-25.35 6.46,-38.07 5.91,-36.92 0.6,2.48 1.92,-14.86 4.21,-55.27 6.31,-110.09 3.29,-165.52 -1.51,-27.78 -4.03,-55.51 -7.4,-83.12 -0.69,-5.68 -7.69,-53.03 -2.88,-23.63 -2.54,-15.51 -5.39,-30.97 -8.46,-46.39 -27.18,-136.81 -73.03,-270.31 -130.52,-397.25 6.7,14.78 -2.56,-5.26 -3.27,-6.75 -3.8,-8.11 -7.62,-16.22 -11.5,-24.3 -8.9,-18.55 -18.03,-37 -27.37,-55.34 -19.46,-38.22 -39.8,-75.99 -60.91,-113.34 -54.16,-95.8 -130.91,-180.23 -203.03,-262.97 C 4799.49,1577.38 3934.74,1056.51 3160.43,441.371 3065.05,365.578 2970.98,288.18 2878.51,208.871 2827.06,164.738 2829,79.0781 2876.96,33.8281 c 52.8,-49.8164 131.8,-41.15623 183.85,3.4727 C 3842.5,707.77 4749.83,1228.45 5467.91,1973.37 c 166.3,172.53 338.57,355.33 451.49,567.97 76.57,144.2 143.58,295.48 189.1,452.51 68.66,236.86 91.67,497.21 16.57,735.6 -134.54,427.06 -539.01,678.5 -962.26,754.98 -463.29,83.73 -967.72,0.46 -1372.7,-242.61 -435.85,-261.62 -713.57,-707.8 -723.86,-1220 -1.35,-67.56 2.07,-135.04 8.94,-202.25 16.38,-160.09 245.5,-158.28 259.98,1.8 48.68,538.23 -311.84,984.36 -741.23,1260.52 -440.99,283.63 -1008.01,443.35 -1532.91,388.27 C 811.461,4443.97 569.449,4370.52 368.715,4215.82 179.598,4070.06 57.7695,3852.72 18.2383,3618.48 -10.3164,3449.29 -1.73047,3281.71 19.332,3111.93 43.4258,2917.83 90.0078,2727.81 165.797,2547.25 303.121,2220.13 522.867,1941.51 792.848,1712.92 1342.95,1247.18 2025,978.77 2611.07,565.559 c 63.04,-44.438 134.03,-98.758 198.16,-150.969 53.78,-43.781 132.12,-46.5 183.85,3.469 45.97,44.41 55.37,131.23 1.54,175.043 v 0" /></g></g></svg>