<?xml version="1.0" encoding="UTF-8" standalone="no"?>
<svg
   xmlns:dc="http://purl.org/dc/elements/1.1/"
   xmlns:cc="http://creativecommons.org/ns#"
   xmlns:rdf="http://www.w3.org/1999/02/22-rdf-syntax-ns#"
   xmlns:svg="http://www.w3.org/2000/svg"
   xmlns="http://www.w3.org/2000/svg"
   viewBox="0 0 402.86667 665.49335"
   height="665.49335"
   width="402.86667"
   xml:space="preserve"
   id="svg2"
   version="1.1"><metadata
     id="metadata8"><rdf:RDF><cc:Work
         rdf:about=""><dc:format>image/svg+xml</dc:format><dc:type
           rdf:resource="http://purl.org/dc/dcmitype/StillImage" /></cc:Work></rdf:RDF></metadata><defs
     id="defs6" /><g
     transform="matrix(1.3333333,0,0,-1.3333333,0,665.49333)"
     id="g10"><g
       transform="scale(0.1)"
       id="g12"><path
         id="path14"
         style="fill:#f1ef24;fill-opacity:1;fill-rule:nonzero;stroke:none"
         d="M 459.551,3604.09 C 390.898,3149.99 262.266,2705 78.0352,2284.32 396.309,2318.61 717.82,2322.75 1036.88,2296.69 715.078,1591.64 486.73,844 359.68,79.4609 1059.85,697.781 1673.01,1414.5 2175.48,2201.96 c 201.08,315.13 413.15,665.58 766.83,786.66 -351.65,41.43 -703.29,82.87 -1054.94,124.3 82.19,593.99 193.51,1183.95 333.43,1767.04 -503.48,20.99 -1007.38,31.27 -1511.288,30.83 C 581.309,4469.96 459.551,3604.09 459.551,3604.09" /><path
         id="path16"
         style="fill:#f1ef24;fill-opacity:1;fill-rule:nonzero;stroke:none"
         d="M 381.094,3625.05 C 312.422,3177.83 188.289,2739.34 7.67578,2324.29 -13.7109,2275.14 9.63672,2196.76 77.168,2203.87 c 318.762,33.54 639.316,37.67 958.842,12.37 -23.17,40.14 -46.33,80.29 -69.494,120.42 C 642.402,1623.95 410.652,872.738 281.223,100.422 267.813,20.4492 354.258,-32.7695 417.363,23.0898 815.527,375.512 1185.99,758.641 1523.87,1169.26 c 168.42,204.69 329.15,415.89 481.28,632.97 141.16,201.41 267.61,412.27 406.75,614.91 140.23,204.24 310.71,408.27 551.21,493.86 88.99,31.67 71.39,147.31 -19.93,158.07 -351.65,41.43 -703.29,82.87 -1054.94,124.3 26.86,-26.91 53.71,-53.83 80.56,-80.75 81.64,587.09 192.55,1169.93 330.46,1746.38 12.52,52.34 -24.32,99.22 -77.59,101.41 -503.51,20.8 -1007.36,31.08 -1511.287,30.82 -36.067,-0.02 -69.348,-24.82 -79.328,-59.48 -124.231,-431.37 -190.379,-883.39 -252.93,-1327.36 -6.16,-43.77 41.113,-80.17 80.559,-80.75 48.296,-0.72 76.199,36.91 82.293,80.15 0.539,3.78 2.429,16.99 0.234,1.71 -2.402,-16.63 2.605,17.9 3.379,23.23 4.973,33.94 10.066,67.88 15.246,101.79 17.762,116.39 36.543,232.63 56.453,348.66 46.633,271.75 95.293,545.41 171.68,810.64 -26.446,-19.83 -52.891,-39.66 -79.324,-59.48 503.925,0.25 1007.785,-10.02 1511.285,-30.82 -25.87,33.8 -51.73,67.61 -77.59,101.41 -141.19,-590.15 -252.81,-1186.71 -336.38,-1787.71 -6.52,-46.8 42.07,-76.21 80.54,-80.75 351.65,-41.43 703.29,-82.87 1054.95,-124.3 -6.66,52.68 -13.3,105.37 -19.94,158.07 -463.66,-165 -690.21,-641.75 -947.49,-1024.41 C 1672.71,1593.67 1334.65,1170.82 964.48,777.629 753.613,553.66 532.336,339.719 301.992,135.832 347.371,110.051 392.754,84.2813 438.137,58.5 c 127.008,757.859 350.945,1498.6 669.103,2198.22 26.12,57.44 -5.31,115.35 -69.5,120.42 -319.517,25.31 -640.072,21.17 -958.8337,-12.37 23.1637,-40.14 46.3277,-80.28 69.4917,-120.42 186.473,428.51 318.653,876.69 389.61,1338.78 15.703,102.25 -141.25,143.9 -156.914,41.92" /></g></g></svg>