<?xml version="1.0" encoding="UTF-8" standalone="no"?>
<svg
   xmlns:dc="http://purl.org/dc/elements/1.1/"
   xmlns:cc="http://creativecommons.org/ns#"
   xmlns:rdf="http://www.w3.org/1999/02/22-rdf-syntax-ns#"
   xmlns:svg="http://www.w3.org/2000/svg"
   xmlns="http://www.w3.org/2000/svg"
   viewBox="0 0 855.32001 715.98669"
   height="715.98669"
   width="855.32001"
   xml:space="preserve"
   id="svg2"
   version="1.1"><metadata
     id="metadata8"><rdf:RDF><cc:Work
         rdf:about=""><dc:format>image/svg+xml</dc:format><dc:type
           rdf:resource="http://purl.org/dc/dcmitype/StillImage" /></cc:Work></rdf:RDF></metadata><defs
     id="defs6" /><g
     transform="matrix(1.3333333,0,0,-1.3333333,0,715.98667)"
     id="g10"><g
       transform="scale(0.1)"
       id="g12"><path
         id="path14"
         style="fill:#f1ef24;fill-opacity:1;fill-rule:nonzero;stroke:none"
         d="m 4552.98,3912.44 c -45.11,-333.23 -211.17,-602.17 -430.72,-848.81 -112.24,-126.08 -191.15,-257.79 -226.89,-423.93 -30.65,-142.52 -33.89,-289.17 -60.45,-432.34 -32.68,-176.22 -106.62,-316.74 -281.47,-385.53 -128.93,-50.71 -404.54,-143.7 -524.89,-43.65 -95.4,79.29 -229.94,-59.96 -133.94,-139.77 129.92,-107.99 281.44,-101.02 439.85,-71.98 94.49,17.31 191.1,38.22 281.32,73.04 -0.85,-34.53 -33.15,-147.39 -37.95,-158.39 -26.19,-60.15 -68.25,-112.27 -120.14,-152.1 -63.09,-48.43 -60,-154.74 26.88,-176.37 53.66,-13.37 97.99,-47.22 96.06,-109.05 -1.71,-54.33 -39.73,-73.939 -66.55,-112.88 -47.14,-68.461 -38.35,-112.438 -28.78,-190.328 29.69,-241.903 -238.87,-325.622 -430.41,-266 -74.6,23.218 -210.65,84.449 -256.21,151.628 -76.17,112.309 66.71,138.141 104.41,221.969 25.61,56.981 9.17,122.571 -35.03,165.721 -24.86,24.27 -72.03,28.01 -92.96,49.92 -45.76,47.91 31.34,92.09 66.17,118.13 40.42,30.23 63.37,86.58 31.9,133.14 -16.24,24.02 -134.13,228.02 -164.78,213.31 52.7,25.3 57.79,74.96 37.2,115.07 39.92,42.88 46.25,114.38 -21.69,143.97 -128.59,56.01 -160.41,195.38 -159.76,324.82 0.94,184.03 51.28,364.15 -0.94,546.21 -78.19,272.51 -323.85,433.29 -485.5,650.69 -183.46,246.73 -210.31,568.28 -124.47,857.59 92.76,312.59 323.26,559.76 597.8,726.32 537.52,326.09 1315.07,446.35 1756.77,-91.83 203.3,-247.7 287.99,-572.25 245.17,-888.57 z M 3136.79,194.152 c -32.55,-9.23 -58.04,12.219 -77.12,41.399 9.14,10.012 16.05,21.64 20.49,34.269 33.48,-5.621 67.63,-8.238 101.85,-7.918 -11.67,-32.863 -25.56,-62.172 -45.22,-67.75 z M 4640.06,4626.96 c -133.84,295.77 -376,544.12 -680.44,663.03 -372.1,145.33 -802.32,73.86 -1165.65,-65.53 -653.73,-250.82 -1200.88,-859.95 -1060.1,-1602.03 35.99,-189.68 124.53,-355.71 248.81,-501.92 123.47,-145.26 286.71,-270.6 368.75,-446.62 97.69,-209.61 -1.62,-440.39 24.32,-659.33 16.25,-137.11 72.03,-273.19 182.17,-354.71 -99.34,-96.8 18.36,-265.54 102.4,-380.02 -67.28,-65.32 -116.21,-145.49 -93.74,-247.08 12.9,-58.277 46.95,-103.328 98.86,-132.488 4.6,-2.473 9.33,-4.672 14.07,-6.821 -19.06,-20.949 -38.27,-44.812 -40.53,-47.718 -159.86,-205.532 10.96,-391.094 209.89,-494.903 -16.44,-22.379 -23.19,-51.398 -13.58,-82.031 C 2877.54,134.191 2968.8,3.40234 3123.58,0.0625 3190.44,-1.37891 3254.3,24.3398 3298.35,75 c 47.3,54.422 50.15,127.012 86.92,186.141 9.3,14.968 13.79,29.648 14.67,43.589 160.43,64.743 284.38,200.821 283.25,396.141 -0.42,72.942 -15.56,103.301 30.22,166.41 46.02,63.418 66.68,137.649 58.1,215.939 -8.42,76.64 -46.57,140.8 -101.42,187.16 60.98,73.16 104.37,158.59 122.25,256.87 12.24,67.26 13.51,141.54 -10.2,201.62 15.25,11.27 30.14,23.15 44.39,36.09 247.1,224.39 190.71,582.07 268.1,875.62 51.64,195.84 206.87,317.11 324.98,472.52 112.41,147.91 199.56,312.49 258.63,488.67 111.63,332.88 107.36,703.57 -38.18,1025.19" /><path
         id="path16"
         style="fill:#f1ef24;fill-opacity:1;fill-rule:nonzero;stroke:none"
         d="m 3307.64,3535.3 c -61.99,63.28 -36.04,172.51 14.34,270.46 5.29,-15.38 10.26,-30.89 14.58,-46.59 9.85,-35.74 62.68,-317.38 -28.92,-223.87 z m -585.09,107.42 c -67.66,89.53 -50.23,237.27 5.79,327.59 109.21,176.06 335.14,171.83 472.8,36.92 3.33,-3.27 6.29,-6.81 9.51,-10.18 -64.27,-96.19 -115.82,-218.47 -122.42,-338.15 -18.25,0.46 -36.69,-2.91 -52.9,-10.43 -94.88,-44.02 -234.81,-108.93 -312.78,-5.75 z m 1049.23,551.69 c -149.58,92.68 -309.27,46.85 -432.02,-53.14 -140.85,140.69 -346.54,203.55 -538.19,128.12 -239.68,-94.33 -365.54,-367.88 -295.45,-614.04 35.39,-124.29 120.66,-226.13 250.08,-254.37 75.76,-16.52 151.25,-4.76 224,18.49 -30.07,-441.55 -91.7,-879.33 -184.67,-1312.41 -26.12,-121.71 161.53,-169.41 187.71,-47.47 94.9,442.05 157.67,889.88 189.07,1340.69 114,-115.89 334.22,-141.1 384.41,53.72 25.21,97.83 -2.87,225.44 -24.95,321.72 -16.84,73.39 -42.61,144.74 -78.2,210.74 3.34,3.06 6.6,5.95 9.7,8.51 223.15,183.52 343.23,-124.31 319.14,-308.67 -26.69,-204.35 -147.94,-381.21 -264.53,-545.06 -111.85,-157.21 -224.69,-311.45 -296.79,-491.96 -77.92,-195.07 -110.81,-400.81 -103.23,-610.49 4.51,-124.38 198.04,-120.61 193.53,4.12 -11.1,306.79 81.82,579.32 253.07,831.55 154.72,227.89 342.23,445.21 398.38,723.06 42.41,209.84 6.76,474.3 -191.06,596.89" /><path
         id="path18"
         style="fill:#f1ef24;fill-opacity:1;fill-rule:nonzero;stroke:none"
         d="m 1542,4928.32 c -183.06,102.09 -362.52,209.95 -538.59,323.72 -34.187,22.09 -90.398,13.14 -116.933,-17.63 -9.52,-11.05 -19.043,-22.09 -28.563,-33.14 -72.324,-83.9 30.477,-199.34 111.434,-156.53 156.812,-99.71 316.182,-195.07 478.542,-285.61 109.03,-60.8 202.97,108.49 94.11,169.19" /><path
         id="path20"
         style="fill:#f1ef24;fill-opacity:1;fill-rule:nonzero;stroke:none"
         d="m 995.852,4098.17 c -301.903,-15.86 -603.594,-12.59 -905.0786,9.82 -124.1484,9.24 -119.207,-184.35 4.1329,-193.52 301.4847,-22.42 603.1717,-25.7 905.0667,-9.83 124.157,6.52 120.577,200.08 -4.121,193.53" /><path
         id="path22"
         style="fill:#f1ef24;fill-opacity:1;fill-rule:nonzero;stroke:none"
         d="m 1453.06,3015.72 c -192.42,-85.87 -384.84,-171.74 -577.267,-257.61 -112.039,-49.99 -58.359,-236.29 55.43,-185.52 192.427,85.87 384.847,171.74 577.267,257.61 112.03,50 58.36,236.3 -55.43,185.52" /><path
         id="path24"
         style="fill:#f1ef24;fill-opacity:1;fill-rule:nonzero;stroke:none"
         d="m 5775.03,5300.3 c -196.33,-55.51 -388.99,-120.9 -578.54,-196.36 -114.71,-45.65 -60.67,-231.73 55.42,-185.52 189.56,75.46 382.21,140.84 578.54,196.36 119.79,33.86 64.74,219.49 -55.42,185.52" /><path
         id="path26"
         style="fill:#f1ef24;fill-opacity:1;fill-rule:nonzero;stroke:none"
         d="m 6343.69,4037.75 c -302.23,61.34 -608.86,78.86 -915.94,49.17 -123.23,-11.93 -120.11,-205.55 4.13,-193.54 290.25,28.08 578.47,14.68 864.35,-43.35 121.88,-24.73 169.7,162.9 47.46,187.72" /><path
         id="path28"
         style="fill:#f1ef24;fill-opacity:1;fill-rule:nonzero;stroke:none"
         d="m 5541.88,2663.28 c -107.2,95.46 -223.18,180.44 -346.62,253.69 -107.44,63.75 -201.15,-105.68 -94.11,-169.18 109.67,-65.08 211.56,-139.46 306.8,-224.27 92.94,-82.77 227.2,56.7 133.93,139.76" /></g></g></svg>