<?xml version="1.0" encoding="UTF-8" standalone="no"?>
<svg
   xmlns:dc="http://purl.org/dc/elements/1.1/"
   xmlns:cc="http://creativecommons.org/ns#"
   xmlns:rdf="http://www.w3.org/1999/02/22-rdf-syntax-ns#"
   xmlns:svg="http://www.w3.org/2000/svg"
   xmlns="http://www.w3.org/2000/svg"
   viewBox="0 0 869.47998 891.74664"
   height="891.74664"
   width="869.47998"
   xml:space="preserve"
   id="svg2"
   version="1.1"><metadata
     id="metadata8"><rdf:RDF><cc:Work
         rdf:about=""><dc:format>image/svg+xml</dc:format><dc:type
           rdf:resource="http://purl.org/dc/dcmitype/StillImage" /></cc:Work></rdf:RDF></metadata><defs
     id="defs6" /><g
     transform="matrix(1.3333333,0,0,-1.3333333,0,891.74667)"
     id="g10"><g
       transform="scale(0.1)"
       id="g12"><path
         id="path14"
         style="fill:#f1ef24;fill-opacity:1;fill-rule:nonzero;stroke:none"
         d="m 2602.05,3748.57 c 73.44,957.21 198.68,1910.45 375.03,2854.14 128.7,-945.39 319.34,-1882.35 570.26,-2802.88 308.83,259.82 635.09,498.9 975.87,715.11 -62.77,-422.45 -242.62,-826.9 -514.27,-1156.47 808.72,-78.94 1617.43,-157.88 2426.15,-236.82 -910.19,-268.61 -1840.63,-539.88 -2788.8,-500.5 235.3,-306.72 470.6,-613.44 705.91,-920.16 -357.57,169.13 -715.15,338.26 -1072.72,507.39 C 3278.32,1493.21 3187.97,778.23 3011.16,85.2617 2865.76,877.98 2720.35,1670.69 2574.95,2463.41 2311.7,2232.14 2048.45,2000.88 1785.2,1769.62 c 150.34,329.75 300.68,659.5 451.02,989.24 C 1523.21,2884.25 805.344,2982.03 84.7773,3051.9 809.211,3093.77 1529.89,3200.44 2235.4,3370.23 c -87.12,323.75 -193.45,642.33 -318.23,953.52 207.93,-204.99 429.3,-396.34 662.23,-572.41" /><path
         id="path16"
         style="fill:#f1ef24;fill-opacity:1;fill-rule:nonzero;stroke:none"
         d="m 2690.1,3748.28 c 73.32,949.89 197.25,1895.24 371.8,2831.83 -56.65,-0.06 -113.29,-0.13 -169.94,-0.2 129.28,-945.53 319.82,-1882.01 570.27,-2802.89 18.61,-68.43 98.25,-79.34 147.47,-38.04 303.55,254.69 623.49,488.48 957.79,701.21 -43.04,32.45 -86.07,64.91 -129.11,97.36 -62.7,-408.77 -229.8,-797.3 -491.8,-1118.22 -49.53,-60.67 -16.45,-140.14 61.38,-147.74 808.72,-78.94 1617.44,-157.88 2426.15,-236.82 -7.16,56.9 -14.32,113.79 -21.48,170.69 -899.29,-265.36 -1817.9,-534.1 -2765.37,-497.43 -60.7,2.35 -118.5,-77.15 -77.08,-131.15 235.31,-306.72 470.61,-613.44 705.91,-920.16 40.14,39.88 80.28,79.77 120.41,119.66 -357.56,169.13 -715.14,338.26 -1072.71,507.39 -57.48,27.19 -132.14,-5.37 -132.35,-75.1 -2.18,-708.68 -90.9,-1413.838 -265.1,-2100.799 56.64,0.07 113.29,0.129 169.94,0.199 -145.4,792.719 -290.81,1585.43 -436.21,2378.15 -12.86,70.12 -102.26,77.76 -147.47,38.04 -263.25,-231.26 -526.51,-462.52 -789.76,-693.79 46.14,-34.66 92.29,-69.32 138.42,-103.99 150.34,329.75 300.68,659.5 451.03,989.25 21.24,46.58 8.13,116.38 -52.5,127.01 -720.58,126.39 -1445.903,225.1 -2174.0478,296.04 -0.6445,-57.92 -1.2891,-115.84 -1.9453,-173.76 732.4411,43.08 1460.5431,150.45 2174.0531,321.4 45.69,10.94 74.84,61.65 62.67,106.61 -87.64,323.79 -193.84,642.01 -318.23,953.52 -49.1,-28.26 -98.19,-56.53 -147.28,-84.8 208.43,-204.75 429.47,-395.81 662.24,-572.41 38.02,-28.85 87.74,-34.78 124.51,1.14 30.45,29.76 37.48,94.27 -0.2,122.85 -232.76,176.6 -453.8,367.66 -662.23,572.41 -56.93,55.93 -180.83,-0.75 -147.28,-84.8 124.4,-311.52 230.6,-629.73 318.23,-953.52 20.89,35.54 41.77,71.08 62.66,106.62 C 1514.38,3286.68 802.844,3180.96 85.7422,3138.78 -27.9766,3132.09 -28.5273,2975.96 83.7969,2965.02 796.895,2895.55 1506.96,2798.76 2212.66,2674.99 c -17.5,42.34 -35,84.67 -52.5,127.01 -150.35,-329.75 -300.69,-659.5 -451.03,-989.24 -41.18,-90.33 61.53,-171.54 138.42,-104 263.25,231.27 526.5,462.53 789.75,693.79 -49.16,12.69 -98.31,25.37 -147.47,38.05 145.41,-792.71 290.81,-1585.428 436.21,-2378.1391 15.93,-86.8007 149.67,-79.7617 169.96,0.1993 177.72,700.8198 269.3,1422.4098 271.53,2145.4298 -44.12,-25.03 -88.24,-50.06 -132.35,-75.1 357.56,-169.13 715.14,-338.26 1072.72,-507.39 68.77,-32.53 179.07,43.2 120.41,119.66 -235.31,306.72 -470.61,613.44 -705.92,920.17 -25.69,-43.72 -51.38,-87.44 -77.08,-131.16 962.7,-37.25 1898.42,233.92 2812.24,503.57 98.89,29.18 75.17,161.25 -21.49,170.69 -808.72,78.94 -1617.44,157.88 -2426.16,236.82 20.46,-49.24 40.92,-98.49 61.38,-147.73 280.89,344.04 469.32,754.99 536.76,1194.72 10.73,69.94 -58.74,142.14 -129.11,97.36 -347.02,-220.83 -678.84,-464.64 -993.94,-729.02 49.16,-12.68 98.31,-25.36 147.47,-38.04 C 3382,4743.51 3191.47,5680 3062.2,6625.52 c -11.7,85.56 -154.77,81.28 -169.95,-0.2 -177.29,-951.24 -303.77,-1911.71 -378.24,-2876.47 -8.66,-112.19 167.54,-111.32 176.09,-0.57 v 0" /></g></g></svg>